<svg width="24" height="24" viewBox="0 0 24 24" fill="none" xmlns="http://www.w3.org/2000/svg">
<path fill-rule="evenodd" clip-rule="evenodd" d="M11.9994 4.63637C10.816 4.63637 9.85659 5.55216 9.85659 6.68183V7.09092H14.1423V6.68183C14.1423 5.55216 13.1829 4.63637 11.9994 4.63637ZM15.8566 7.09092V6.68183C15.8566 4.64842 14.1297 3 11.9994 3C9.8692 3 8.1423 4.64842 8.1423 6.68183V7.09092H5.99945C5.05266 7.09092 4.28516 7.82355 4.28516 8.7273V19.3637C4.28516 20.2674 5.05266 21 5.99945 21H17.9994C18.9463 21 19.7137 20.2674 19.7137 19.3637V8.7273C19.7137 7.82355 18.9463 7.09092 17.9994 7.09092H15.8566ZM14.1423 8.7273V9.54548C14.1423 9.99735 14.5261 10.3637 14.9994 10.3637C15.4728 10.3637 15.8566 9.99735 15.8566 9.54548V8.7273H17.9994V19.3637H5.99945V8.7273H8.1423V9.54548C8.1423 9.99735 8.52606 10.3637 8.99944 10.3637C9.47283 10.3637 9.85659 9.99735 9.85659 9.54548V8.7273H14.1423Z" fill="#CC5869"/>
</svg>
