<svg width="24" height="24" viewBox="0 0 24 24" fill="none" xmlns="http://www.w3.org/2000/svg">
<path fill-rule="evenodd" clip-rule="evenodd" d="M5.63606 18.3641C7.90969 20.6377 11.2236 21.5257 14.3294 20.6934C17.4353 19.8612 19.8612 17.4353 20.6934 14.3294C21.5257 11.2236 20.6377 7.90969 18.3641 5.63606C14.8493 2.12132 9.1508 2.12132 5.63606 5.63606C2.12132 9.1508 2.12132 14.8493 5.63606 18.3641V18.3641Z" stroke="#CC5869" stroke-width="1.5" stroke-linecap="round" stroke-linejoin="round"/>
<path d="M12.4945 3.01953C12.6332 5.57246 11.6796 8.06389 9.87175 9.87175C8.06389 11.6796 5.57246 12.6332 3.01953 12.4945" stroke="#CC5869" stroke-width="1.5" stroke-linecap="round" stroke-linejoin="round"/>
<path d="M20.9805 11.5055C18.4275 11.3668 15.9361 12.3204 14.1282 14.1282C12.3204 15.9361 11.3668 18.4275 11.5055 20.9805" stroke="#CC5869" stroke-width="1.5" stroke-linecap="round" stroke-linejoin="round"/>
<path d="M9 9L11 11" stroke="#CC5869" stroke-width="1.5" stroke-linecap="round" stroke-linejoin="round"/>
<path d="M13 13L15 15" stroke="#CC5869" stroke-width="1.5" stroke-linecap="round" stroke-linejoin="round"/>
<path d="M11 7L13 8" stroke="#CC5869" stroke-width="1.5" stroke-linecap="round" stroke-linejoin="round"/>
<path d="M7 11L8 13" stroke="#CC5869" stroke-width="1.5" stroke-linecap="round" stroke-linejoin="round"/>
<path d="M16 11L17 13" stroke="#CC5869" stroke-width="1.5" stroke-linecap="round" stroke-linejoin="round"/>
<path d="M11 16L13 17" stroke="#CC5869" stroke-width="1.5" stroke-linecap="round" stroke-linejoin="round"/>
</svg>
