<svg width="24" height="24" viewBox="0 0 24 24" fill="none" xmlns="http://www.w3.org/2000/svg">
<path d="M17.5513 16.7491C14.6224 13.8206 9.87418 13.8206 6.94531 16.7491" stroke="#CC5869" stroke-width="1.5" stroke-linecap="round" stroke-linejoin="round"/>
<path fill-rule="evenodd" clip-rule="evenodd" d="M18.0007 3.80482C15.131 2.14805 11.4616 3.13121 9.80469 6.00082L20.1967 12.0008C21.8535 9.13114 20.8703 5.46172 18.0007 3.80482V3.80482Z" stroke="#CC5869" stroke-width="1.5" stroke-linecap="round" stroke-linejoin="round"/>
<path d="M16.7335 9.9993C18.3915 7.1293 18.9585 4.3553 18.0015 3.8033C17.0445 3.2513 14.9265 5.1293 13.2695 7.9993" stroke="#CC5869" stroke-width="1.5" stroke-linecap="round" stroke-linejoin="round"/>
<path d="M15 9L12 14.196" stroke="#CC5869" stroke-width="1.5" stroke-linecap="round" stroke-linejoin="round"/>
<path d="M3 19.2505C3.31129 19.0958 3.65249 19.0105 4 19.0005C4.79071 18.984 5.53882 19.358 6 20.0005C6.46118 20.643 7.20929 21.0171 8 21.0005C8.79071 21.0171 9.53882 20.643 10 20.0005C10.4612 19.358 11.2093 18.984 12 19.0005C12.7907 18.984 13.5388 19.358 14 20.0005C14.4612 20.643 15.2093 21.0171 16 21.0005C16.7907 21.0171 17.5388 20.643 18 20.0005C18.4612 19.358 19.2093 18.984 20 19.0005C20.3475 19.0105 20.6887 19.0958 21 19.2505" stroke="#CC5869" stroke-width="1.5" stroke-linecap="round" stroke-linejoin="round"/>
</svg>
