<svg width="24" height="24" viewBox="0 0 24 24" fill="none" xmlns="http://www.w3.org/2000/svg">
<path fill-rule="evenodd" clip-rule="evenodd" d="M9.07919 4.91459C9.20623 4.6605 9.46592 4.5 9.74999 4.5H14.25C14.5341 4.5 14.7938 4.6605 14.9208 4.91459L15.8385 6.75H18.375C19.4105 6.75 20.2499 7.58946 20.2499 8.625V17.625C20.2499 18.6605 19.4105 19.5001 18.375 19.5001H5.625C4.58947 19.5001 3.75 18.6605 3.75 17.625V8.625C3.75 7.58947 4.58947 6.75 5.625 6.75H8.16147L9.07919 4.91459ZM9.83853 6.75H14.1615L13.7865 5.99999H10.2135L9.83853 6.75ZM5.625 8.24999C5.4179 8.24999 5.24999 8.41789 5.24999 8.625V17.625C5.24999 17.8321 5.4179 18 5.625 18H18.375C18.5821 18 18.75 17.8321 18.75 17.625V8.625C18.75 8.41789 18.5821 8.24999 18.375 8.24999H5.625ZM8.25 13.125C8.25 11.0539 9.92893 9.37499 12 9.37499C14.0711 9.37499 15.75 11.0539 15.75 13.125C15.75 15.1961 14.0711 16.875 12 16.875C9.92893 16.875 8.25 15.1961 8.25 13.125ZM12 10.875C10.7574 10.875 9.74999 11.8824 9.74999 13.125C9.74999 14.3676 10.7574 15.375 12 15.375C13.2426 15.375 14.25 14.3676 14.25 13.125C14.25 11.8824 13.2426 10.875 12 10.875Z" fill="#CC5869"/>
</svg>
