<svg width="24" height="24" viewBox="0 0 24 24" fill="none" xmlns="http://www.w3.org/2000/svg">
<path fill-rule="evenodd" clip-rule="evenodd" d="M7.05042 11.2934L11.2934 7.05042C12.0744 6.26965 13.3404 6.26965 14.1214 7.05042L16.9504 9.88042C17.7312 10.6614 17.7312 11.9274 16.9504 12.7084L12.7074 16.9514C11.9264 17.7322 10.6604 17.7322 9.87942 16.9514L7.05042 14.1204C6.26965 13.3394 6.26965 12.0734 7.05042 11.2924V11.2934Z" stroke="#CC5869" stroke-width="1.5" stroke-linecap="round" stroke-linejoin="round"/>
<path d="M16.2421 9.1713L19.3281 8.3993C19.8524 8.26829 20.2658 7.86534 20.4101 7.34449C20.5544 6.82364 20.4073 6.26544 20.0251 5.8833L17.8091 3.6663C17.4571 3.31407 16.9533 3.15948 16.4643 3.25366C15.9754 3.34785 15.565 3.67853 15.3691 4.1363L14.1211 7.0493" stroke="#CC5869" stroke-width="1.5" stroke-linecap="round" stroke-linejoin="round"/>
<path d="M9.1713 16.2421L8.3993 19.3281C8.26829 19.8524 7.86534 20.2658 7.34449 20.4101C6.82364 20.5544 6.26544 20.4073 5.8833 20.0251L3.6663 17.8091C3.31407 17.4571 3.15948 16.9533 3.25366 16.4643C3.34785 15.9754 3.67853 15.565 4.1363 15.3691L7.0493 14.1211" stroke="#CC5869" stroke-width="1.5" stroke-linecap="round" stroke-linejoin="round"/>
</svg>
