<svg width="24" height="24" viewBox="0 0 24 24" fill="none" xmlns="http://www.w3.org/2000/svg">
<path d="M3 14.0006C3.83 14.6426 5.077 15.0176 6.5 15.0006C7.923 15.0176 9.17 14.6426 10 14.0006C10.83 13.3586 12.077 12.9836 13.5 13.0006C14.923 12.9836 16.17 13.3586 17 14.0006" stroke="#CC5869" stroke-width="1.5" stroke-linecap="round" stroke-linejoin="round"/>
<path d="M8.00053 3C7.35802 3.46118 6.98396 4.20929 7.00053 5C6.98396 5.79071 7.35802 6.53882 8.00053 7" stroke="#CC5869" stroke-width="1.5" stroke-linecap="round" stroke-linejoin="round"/>
<path d="M12.0005 3C11.358 3.46118 10.984 4.20929 11.0005 5C10.984 5.79071 11.358 6.53882 12.0005 7" stroke="#CC5869" stroke-width="1.5" stroke-linecap="round" stroke-linejoin="round"/>
<path fill-rule="evenodd" clip-rule="evenodd" d="M3 10H17V15C17 18.3137 14.3137 21 11 21H9C5.68629 21 3 18.3137 3 15V10Z" stroke="#CC5869" stroke-width="1.5" stroke-linecap="round" stroke-linejoin="round"/>
<path d="M16.7461 16.7267C17.9749 17.2908 19.4292 16.9632 20.2975 15.9266C21.1657 14.8901 21.2333 13.4009 20.4625 12.29C19.6916 11.1791 18.2729 10.7212 16.9981 11.1717" stroke="#CC5869" stroke-width="1.5" stroke-linecap="round" stroke-linejoin="round"/>
</svg>
