<svg width="24" height="24" viewBox="0 0 24 24" fill="none" xmlns="http://www.w3.org/2000/svg">
<path d="M9 12.375C9.41422 12.375 9.75 12.7108 9.75 13.125V13.875H10.5C10.9142 13.875 11.25 14.2108 11.25 14.625C11.25 15.0392 10.9142 15.375 10.5 15.375H9.75V16.125C9.75 16.5392 9.41422 16.875 9 16.875C8.58579 16.875 8.25 16.5392 8.25 16.125V15.375H7.5C7.08579 15.375 6.75 15.0392 6.75 14.625C6.75 14.2108 7.08579 13.875 7.5 13.875H8.25V13.125C8.25 12.7108 8.58579 12.375 9 12.375Z" fill="#CC5869"/>
<path fill-rule="evenodd" clip-rule="evenodd" d="M15 12.375C13.7574 12.375 12.75 13.3824 12.75 14.625C12.75 15.8676 13.7574 16.875 15 16.875C16.2426 16.875 17.25 15.8676 17.25 14.625C17.25 13.3824 16.2426 12.375 15 12.375ZM14.25 14.625C14.25 14.2108 14.5858 13.875 15 13.875C15.4142 13.875 15.75 14.2108 15.75 14.625C15.75 15.0392 15.4142 15.375 15 15.375C14.5858 15.375 14.25 15.0392 14.25 14.625Z" fill="#CC5869"/>
<path fill-rule="evenodd" clip-rule="evenodd" d="M15 4.125C15.4142 4.125 15.75 4.46079 15.75 4.875V7.01785C15.75 7.43207 15.4142 7.76786 15 7.76786H12.75V9.375H15C17.8995 9.375 20.2499 11.7255 20.2499 14.625C20.2499 17.5244 17.8995 19.875 15 19.875H9C6.10051 19.875 3.75 17.5244 3.75 14.625C3.75 11.7255 6.10051 9.375 9 9.375H11.25V7.01785C11.25 6.60365 11.5858 6.26786 12 6.26786H14.25V4.875C14.25 4.46079 14.5858 4.125 15 4.125ZM9 10.875C6.92893 10.875 5.24999 12.5539 5.24999 14.625C5.24999 16.6961 6.92893 18.3749 9 18.3749H15C17.071 18.3749 18.75 16.6961 18.75 14.625C18.75 12.5539 17.071 10.875 15 10.875H9Z" fill="#CC5869"/>
</svg>
