<svg width="24" height="24" viewBox="0 0 24 24" fill="none" xmlns="http://www.w3.org/2000/svg">
<path d="M5.99997 17.9469C5.99997 18.4992 6.44769 18.9469 6.99997 18.9469H8.34615C8.89843 18.9469 9.34615 18.4992 9.34615 17.9469V14.0046C9.34615 13.4523 9.79386 13.0046 10.3461 13.0046H13.6538C14.2061 13.0046 14.6538 13.4523 14.6538 14.0046V17.9469C14.6538 18.4992 15.1015 18.9469 15.6538 18.9469H17C17.5523 18.9469 18 18.4992 18 17.9469V10.4456C18 10.1316 17.8525 9.8358 17.6016 9.64686L12.6016 5.88084C12.2454 5.61253 11.7546 5.61253 11.3983 5.88084L6.39834 9.64686C6.1475 9.8358 5.99997 10.1316 5.99997 10.4456V17.9469ZM5.5 20.4469C4.94771 20.4469 4.5 19.9992 4.5 19.4469V9.69591C4.5 9.38173 4.64765 9.08582 4.89869 8.8969L11.3987 4.00526C11.7548 3.73728 12.2452 3.73728 12.6013 4.00526L19.1013 8.89689C19.3523 9.08581 19.5 9.38173 19.5 9.69591V19.4469C19.5 19.9992 19.0522 20.4469 18.5 20.4469H14.1538C13.6015 20.4469 13.1538 19.9992 13.1538 19.4469V15.5046C13.1538 14.9523 12.7061 14.5046 12.1538 14.5046H11.8461C11.2938 14.5046 10.8461 14.9523 10.8461 15.5046V19.4469C10.8461 19.9992 10.3984 20.4469 9.84613 20.4469H5.5Z" fill="#CC5869"/>
</svg>
