<svg width="24" height="24" viewBox="0 0 24 24" fill="none" xmlns="http://www.w3.org/2000/svg">
<path fill-rule="evenodd" clip-rule="evenodd" d="M11.9985 3.00019C12.1305 3.00019 12.2615 3.00019 12.3915 3.00019C9.74067 5.46335 9.22655 9.46804 11.1693 12.5209C13.112 15.5738 16.9574 16.8043 20.3115 15.4462C18.5788 19.6153 14.0253 21.8555 9.66515 20.6839C5.30497 19.5122 2.48761 15.2915 3.07796 10.8154C3.66832 6.33927 7.48367 2.99328 11.9985 2.99219V3.00019Z" stroke="#CC5869" stroke-width="1.5" stroke-linecap="round" stroke-linejoin="round"/>
<path d="M17 4C17 5.10457 17.8954 6 19 6C17.8954 6 17 6.89543 17 8C17 6.89543 16.1046 6 15 6C16.1046 6 17 5.10457 17 4" stroke="#CC5869" stroke-width="1.5" stroke-linecap="round" stroke-linejoin="round"/>
<path d="M19 10.25C18.5858 10.25 18.25 10.5858 18.25 11C18.25 11.4142 18.5858 11.75 19 11.75V10.25ZM21 11.75C21.4142 11.75 21.75 11.4142 21.75 11C21.75 10.5858 21.4142 10.25 21 10.25V11.75ZM20.75 10C20.75 9.58579 20.4142 9.25 20 9.25C19.5858 9.25 19.25 9.58579 19.25 10H20.75ZM19.25 12C19.25 12.4142 19.5858 12.75 20 12.75C20.4142 12.75 20.75 12.4142 20.75 12H19.25ZM19 11.75H21V10.25H19V11.75ZM19.25 10V12H20.75V10H19.25Z" fill="#CC5869"/>
</svg>
