<svg width="24" height="24" viewBox="0 0 24 24" fill="none" xmlns="http://www.w3.org/2000/svg">
<path d="M2.02128 21.9322C1.46899 21.9322 1.02128 21.4845 1.02128 20.9322V10.0968C1.02128 9.73132 0.806526 9.40962 0.544413 9.15487C0.446322 9.05953 0.358468 8.95503 0.280851 8.84138C0.0936171 8.56722 0 8.24997 0 7.88963C0 7.54398 0.168256 7.13122 0.504767 6.65135C0.684834 6.39457 0.890958 6.13562 1.12314 5.87452C1.47813 5.47531 2.09634 5.47531 2.45133 5.87452C2.68351 6.13562 2.88964 6.39457 3.06971 6.65135C3.4062 7.13122 3.57445 7.54398 3.57445 7.88963C3.57445 8.24997 3.48083 8.56722 3.29359 8.84138C3.21598 8.95503 3.12812 9.05953 3.03003 9.15487C2.76792 9.40962 2.55317 9.73132 2.55317 10.0968V13.2726C2.55317 13.8249 3.00088 14.2726 3.55317 14.2726H4.10641C4.6587 14.2726 5.10641 13.8249 5.10641 13.2726V11.9747C5.10641 11.5623 5.24094 11.1849 5.51 10.8425C5.77675 10.5031 6.13971 10.2958 6.59885 10.2209C6.6068 10.2196 6.61487 10.2189 6.62292 10.2189V10.2189C6.75566 10.2189 6.82898 10.0599 6.75139 9.95222C6.58117 9.71593 6.44464 9.46212 6.34178 9.19079C6.19905 8.81434 6.12769 8.41467 6.12769 7.99176C6.12769 7.35523 6.27961 6.76644 6.58346 6.22538C6.88733 5.68433 7.29514 5.23875 7.8069 4.88866L11.4416 2.44223C11.7792 2.21502 12.2208 2.21502 12.5584 2.44223L16.1931 4.88866C16.7049 5.23875 17.1127 5.68433 17.4166 6.22538C17.7204 6.76644 17.8723 7.35523 17.8723 7.99176C17.8723 8.41467 17.801 8.81434 17.6582 9.19079C17.5554 9.46212 17.4189 9.71593 17.2486 9.95222C17.171 10.0599 17.2444 10.2189 17.3771 10.2189V10.2189C17.3852 10.2189 17.3932 10.2196 17.4012 10.2209C17.8603 10.2958 18.2233 10.5031 18.49 10.8425C18.7591 11.1849 18.8936 11.5623 18.8936 11.9747V13.2726C18.8936 13.8249 19.3413 14.2726 19.8936 14.2726H20.4469C20.9991 14.2726 21.4469 13.8249 21.4469 13.2726V10.0968C21.4469 9.73132 21.2321 9.40962 20.97 9.15487C20.8719 9.05953 20.784 8.95503 20.7064 8.84138C20.5192 8.56722 20.4256 8.24997 20.4256 7.88963C20.4256 7.54398 20.5938 7.13122 20.9303 6.65135C21.1104 6.39457 21.3165 6.13562 21.5487 5.87452C21.9037 5.47531 22.5219 5.47531 22.8769 5.87452C23.1091 6.13562 23.3152 6.39457 23.4953 6.65135C23.8318 7.13122 24 7.54398 24 7.88963C24 8.24997 23.9064 8.56722 23.7191 8.84138C23.6415 8.95503 23.5537 9.05953 23.4556 9.15487C23.1935 9.40962 22.9787 9.73132 22.9787 10.0968V20.9322C22.9787 21.4845 22.531 21.9322 21.9787 21.9322H14.2766C13.7244 21.9322 13.2766 21.4845 13.2766 20.9322V18.1024C13.2766 17.7476 13.1526 17.4461 12.9045 17.198C12.6563 16.9498 12.3548 16.8258 12 16.8258C11.6452 16.8258 11.3437 16.9498 11.0956 17.198C10.8474 17.4461 10.7234 17.7476 10.7234 18.1024V20.9322C10.7234 21.4845 10.2757 21.9322 9.72339 21.9322H2.02128ZM9.85533 10.1875H14.1447C14.7548 10.1875 15.2733 9.97411 15.7002 9.54727C16.127 9.12041 16.3405 8.6024 16.3405 7.99326C16.3405 7.61255 16.2541 7.26049 16.0812 6.93708C15.9084 6.61368 15.6662 6.34854 15.3545 6.14166L12.5542 4.27747C12.2185 4.05404 11.7815 4.05404 11.4459 4.27747L8.6455 6.14166C8.33387 6.34854 8.09164 6.61368 7.91881 6.93708C7.74597 7.26049 7.65956 7.61255 7.65956 7.99326C7.65956 8.6024 7.87298 9.12041 8.29982 9.54727C8.72668 9.97411 9.24518 10.1875 9.85533 10.1875ZM2.55317 19.4003C2.55317 19.9526 3.00088 20.4003 3.55317 20.4003H8.19152C8.74381 20.4003 9.19152 19.9526 9.19152 19.4003V18.1024C9.19152 17.3223 9.46446 16.6592 10.0103 16.1131C10.5562 15.567 11.219 15.2939 11.9989 15.2939C12.7787 15.2939 13.4419 15.567 13.9885 16.1131C14.5352 16.6592 14.8085 17.3223 14.8085 18.1024V19.4003C14.8085 19.9526 15.2562 20.4003 15.8085 20.4003H20.4469C20.9991 20.4003 21.4469 19.9526 21.4469 19.4003V16.8045C21.4469 16.2522 20.9991 15.8045 20.4469 15.8045H18.3617C17.8095 15.8045 17.3617 15.3568 17.3617 14.8045V11.9747C17.3617 11.9027 17.3372 11.8422 17.2881 11.7931C17.239 11.7439 17.1784 11.7194 17.1064 11.7194H6.89362C6.82161 11.7194 6.76105 11.7439 6.71194 11.7931C6.66283 11.8422 6.63828 11.9027 6.63828 11.9747V14.8045C6.63828 15.3568 6.19056 15.8045 5.63828 15.8045H3.55317C3.00088 15.8045 2.55317 16.2522 2.55317 16.8045V19.4003Z" fill="#CC5869"/>
</svg>
