<svg width="24" height="24" viewBox="0 0 24 24" fill="none" xmlns="http://www.w3.org/2000/svg">
<path fill-rule="evenodd" clip-rule="evenodd" d="M19.8076 3.42893C20.008 3.58695 20.125 3.82811 20.125 4.08334V7.45177C20.1253 7.4636 20.1253 7.4754 20.125 7.48715V16.75C20.125 18.0387 19.0803 19.0834 17.7917 19.0834H16.1667C14.901 19.0834 13.875 18.0573 13.875 16.7917C13.875 15.526 14.901 14.5 16.1667 14.5H18.4583V8.52242L9.70834 10.5941V18.4167C9.70834 19.7053 8.66366 20.75 7.375 20.75H6.16667C4.90101 20.75 3.875 19.724 3.875 18.4584C3.875 17.1927 4.90101 16.1667 6.16667 16.1667H8.04167V9.95198C8.04141 9.94017 8.04141 9.92838 8.04167 9.91662V6.58334C8.04167 6.19802 8.30584 5.86294 8.68053 5.77302L19.0972 3.27302C19.3454 3.21345 19.6072 3.27091 19.8076 3.42893ZM9.70834 8.88134L18.4583 6.80968V5.14034L9.70834 7.24034V8.88134ZM8.04167 17.8334H6.16667C5.82149 17.8334 5.54167 18.1131 5.54167 18.4584C5.54167 18.8036 5.82149 19.0834 6.16667 19.0834H7.375C7.74319 19.0834 8.04167 18.7848 8.04167 18.4167V17.8334ZM18.4583 16.1667H16.1667C15.8215 16.1667 15.5417 16.4465 15.5417 16.7917C15.5417 17.1368 15.8215 17.4167 16.1667 17.4167H17.7917C18.1599 17.4167 18.4583 17.1181 18.4583 16.75V16.1667Z" fill="#CC5869"/>
</svg>
