<svg width="14" height="14" viewBox="0 0 14 14" fill="none" xmlns="http://www.w3.org/2000/svg">
<path fill-rule="evenodd" clip-rule="evenodd" d="M13.4022 1.0386C13.473 1.35291 13.2755 1.66504 12.9612 1.73576L9.91647 2.42082V6.41665H12.8331C13.1553 6.41665 13.4165 6.67782 13.4165 6.99998C13.4165 8.72487 12.8952 10.335 11.8039 11.52C10.7053 12.7128 9.0822 13.4167 6.9998 13.4167C4.9174 13.4167 3.29431 12.7128 2.19572 11.52C1.10437 10.335 0.583134 8.72487 0.583134 6.99998C0.583134 6.67782 0.844301 6.41665 1.16647 6.41665H1.7498V4.25832L1.29452 4.36076C0.980208 4.43148 0.668081 4.23401 0.597362 3.9197C0.526642 3.60539 0.72411 3.29326 1.03842 3.22254L1.7498 3.06248V2.91665C1.7498 2.59448 2.01097 2.33332 2.33313 2.33332C2.61623 2.33332 2.85223 2.53498 2.9053 2.8025L4.08313 2.53748V2.33332C4.08313 2.01115 4.3443 1.74998 4.66647 1.74998C4.96916 1.74998 5.21801 1.98054 5.24698 2.27562L6.41647 2.01248V1.74998C6.41647 1.42782 6.67763 1.16665 6.9998 1.16665C7.32197 1.16665 7.58313 1.42782 7.58313 1.74998L8.7498 1.48748V1.16665C8.7498 0.844485 9.01097 0.583317 9.33313 0.583317C9.6553 0.583317 9.91647 0.844485 9.91647 1.16665V1.22498L12.7051 0.597545C13.0194 0.526826 13.3315 0.724293 13.4022 1.0386ZM8.7498 2.68332L7.58313 2.94582V6.41665H8.7498V2.68332ZM1.77334 7.58332C1.8761 8.83564 2.31359 9.9258 3.05388 10.7296C3.89975 11.648 5.19332 12.25 6.9998 12.25C8.80628 12.25 10.0999 11.648 10.9457 10.7296C11.686 9.9258 12.1235 8.83564 12.2263 7.58332H1.77334ZM2.91647 6.41665H4.08313V3.73332L2.91647 3.99582V6.41665ZM5.2498 3.47082V6.41665H6.41647V3.20832L5.2498 3.47082Z" fill="#CC5869"/>
</svg>
