<svg width="14" height="14" viewBox="0 0 14 14" fill="none" xmlns="http://www.w3.org/2000/svg">
<path d="M11.083 9.37708L10.4559 8.75V7.58333H11.3601V9.37708H11.083ZM9.88714 8.18125L9.28922 7.58333H9.88714V8.18125ZM11.9288 9.37708V7.58333H12.833V9.37708H11.9288ZM11.0101 12.7458L7.62672 9.37708H2.05589C1.80311 9.37708 1.59165 9.28958 1.42152 9.11458C1.25138 8.93958 1.16631 8.72569 1.16631 8.47292C1.16631 8.22986 1.25381 8.02083 1.42881 7.84583C1.60381 7.67083 1.8177 7.58333 2.07047 7.58333H5.83297L1.22464 2.975C1.10797 2.85833 1.05207 2.71493 1.05693 2.54479C1.06179 2.37465 1.12256 2.23125 1.23922 2.11458C1.35589 1.99792 1.49686 1.93958 1.66214 1.93958C1.82742 1.93958 1.97325 1.99792 2.09964 2.11458L11.8705 11.9C11.9871 12.0167 12.0455 12.1576 12.0455 12.3229C12.0455 12.4882 11.9871 12.6292 11.8705 12.7458C11.7538 12.8625 11.6104 12.9233 11.4403 12.9281C11.2701 12.933 11.1267 12.8722 11.0101 12.7458ZM10.908 7.01458C10.7816 7.01458 10.6746 6.97083 10.5871 6.88333C10.4996 6.79583 10.4559 6.68889 10.4559 6.5625V6.25625C10.4559 5.91597 10.3562 5.64618 10.1569 5.44687C9.95763 5.24757 9.68784 5.14792 9.34756 5.14792H8.44339C7.88922 5.14792 7.42742 4.95833 7.05797 4.57917C6.68853 4.2 6.50381 3.73333 6.50381 3.17917C6.50381 2.7125 6.63749 2.30417 6.90485 1.95417C7.17221 1.60417 7.51978 1.37569 7.94756 1.26875C8.07395 1.22986 8.18818 1.2566 8.29027 1.34896C8.39235 1.44132 8.44339 1.56528 8.44339 1.72083C8.44339 1.81805 8.40693 1.90798 8.33402 1.99062C8.2611 2.07326 8.16631 2.13889 8.04964 2.1875C7.84547 2.26528 7.68263 2.38924 7.5611 2.55937C7.43957 2.72951 7.37881 2.93611 7.37881 3.17917C7.37881 3.49028 7.47846 3.74549 7.67777 3.94479C7.87707 4.1441 8.13228 4.24375 8.44339 4.24375H9.34756C9.87256 4.24375 10.3392 4.41146 10.7476 4.74687C11.1559 5.08229 11.3601 5.5125 11.3601 6.0375V6.5625C11.3601 6.68889 11.3163 6.79583 11.2288 6.88333C11.1413 6.97083 11.0344 7.01458 10.908 7.01458ZM12.3809 7.01458C12.2545 7.01458 12.1476 6.97083 12.0601 6.88333C11.9726 6.79583 11.9288 6.68889 11.9288 6.5625V5.73125C11.9288 5.15764 11.7562 4.65694 11.4111 4.22917C11.066 3.80139 10.626 3.53403 10.0913 3.42708C9.9552 3.39792 9.84582 3.33958 9.76318 3.25208C9.68054 3.16458 9.63922 3.05764 9.63922 2.93125C9.63922 2.8243 9.67811 2.72222 9.75589 2.625C9.83367 2.52778 9.94061 2.45 10.0767 2.39167C10.2031 2.33333 10.3125 2.25555 10.4048 2.15833C10.4972 2.06111 10.5677 1.9493 10.6163 1.82292C10.6649 1.70625 10.7305 1.61389 10.8132 1.54583C10.8958 1.47778 10.9858 1.44375 11.083 1.44375C11.2288 1.44375 11.3503 1.49236 11.4476 1.58958C11.5448 1.6868 11.5739 1.80347 11.5351 1.93958C11.4864 2.10486 11.4184 2.26285 11.3309 2.41354C11.2434 2.56424 11.1413 2.70278 11.0246 2.82917C11.5788 3.09167 12.0187 3.48299 12.3444 4.00312C12.6701 4.52326 12.833 5.0993 12.833 5.73125V6.5625C12.833 6.68889 12.7892 6.79583 12.7017 6.88333C12.6142 6.97083 12.5073 7.01458 12.3809 7.01458Z" fill="#CC5869"/>
</svg>
