<svg width="24" height="24" viewBox="0 0 24 24" fill="none" xmlns="http://www.w3.org/2000/svg">
<path fill-rule="evenodd" clip-rule="evenodd" d="M17.4153 4.91667C16.725 4.91667 16.1654 5.47631 16.1654 6.16667C16.1654 6.85702 16.725 7.41667 17.4153 7.41667C18.1057 7.41667 18.6653 6.85702 18.6653 6.16667C18.6653 5.47631 18.1057 4.91667 17.4153 4.91667ZM14.4987 6.16667C14.4987 4.55584 15.8045 3.25 17.4153 3.25C19.0262 3.25 20.332 4.55584 20.332 6.16667C20.332 7.7775 19.0262 9.08334 17.4153 9.08334C15.8045 9.08334 14.4987 7.7775 14.4987 6.16667ZM9.50605 5.75004C9.83978 5.75297 10.1396 5.95474 10.2679 6.26282L13.5786 14.2084L14.5415 11.3198C14.6444 11.0111 14.9176 10.7905 15.2411 10.755C15.5646 10.7195 15.8792 10.8755 16.0466 11.1546L21.0466 19.488C21.201 19.7454 21.2052 20.066 21.0572 20.3273C20.9093 20.5886 20.6323 20.75 20.332 20.75H3.66536C3.38414 20.75 3.12188 20.6081 2.96795 20.3728C2.81402 20.1374 2.78918 19.8403 2.9019 19.5827L8.73523 6.24932C8.86901 5.94355 9.17231 5.7471 9.50605 5.75004ZM4.93955 19.0833H18.8602L15.5496 13.5657L14.4559 16.8468C14.346 17.1766 14.0431 17.4034 13.6958 17.4161C13.3485 17.4288 13.0298 17.2247 12.8961 16.9038L9.48001 8.70514L4.93955 19.0833Z" fill="#CC5869"/>
</svg>
