<svg width="24" height="24" viewBox="0 0 24 24" fill="none" xmlns="http://www.w3.org/2000/svg">
<path fill-rule="evenodd" clip-rule="evenodd" d="M5.75 14C6.16421 14 6.5 14.3358 6.5 14.75C6.5 17.6495 8.85051 20 11.75 20C14.6495 20 17 17.6495 17 14.75C17 14.3358 17.3358 14 17.75 14C18.1642 14 18.5 14.3358 18.5 14.75C18.5 18.4779 15.4779 21.5 11.75 21.5C8.02208 21.5 5 18.4779 5 14.75C5 14.3358 5.33579 14 5.75 14Z" fill="#CC5869"/>
<path fill-rule="evenodd" clip-rule="evenodd" d="M11 20.75C11 17.0221 14.0221 14 17.75 14C18.1642 14 18.5 14.3358 18.5 14.75C18.5 15.1642 18.1642 15.5 17.75 15.5C14.8505 15.5 12.5 17.8505 12.5 20.75C12.5 21.1642 12.1642 21.5 11.75 21.5C11.3358 21.5 11 21.1642 11 20.75Z" fill="#CC5869"/>
<path fill-rule="evenodd" clip-rule="evenodd" d="M5 14.75C5 14.3358 5.33579 14 5.75 14C9.47792 14 12.5 17.0221 12.5 20.75C12.5 21.1642 12.1642 21.5 11.75 21.5C11.3358 21.5 11 21.1642 11 20.75C11 17.8505 8.64949 15.5 5.75 15.5C5.33579 15.5 5 15.1642 5 14.75Z" fill="#CC5869"/>
<path fill-rule="evenodd" clip-rule="evenodd" d="M11.75 10C12.1642 10 12.5 10.3358 12.5 10.75V20.75C12.5 21.1642 12.1642 21.5 11.75 21.5C11.3358 21.5 11 21.1642 11 20.75V10.75C11 10.3358 11.3358 10 11.75 10Z" fill="#CC5869"/>
<path fill-rule="evenodd" clip-rule="evenodd" d="M6.39611 2.08875C6.63997 1.95823 6.93588 1.97254 7.16603 2.12596L9.65444 3.7849L11.2197 2.21967C11.5126 1.92678 11.9874 1.92678 12.2803 2.21967L13.8456 3.7849L16.334 2.12596C16.5641 1.97254 16.86 1.95823 17.1039 2.08875C17.3478 2.21926 17.5 2.4734 17.5 2.75V5.75C17.5 7.275 16.8942 8.73753 15.8159 9.81587C14.7375 10.8942 13.275 11.5 11.75 11.5C8.57436 11.5 6 8.92564 6 5.75V2.75C6 2.4734 6.15224 2.21926 6.39611 2.08875ZM11.75 10C12.8772 10 13.9582 9.55223 14.7552 8.7552C15.5522 7.95818 16 6.87717 16 5.75V4.15139L14.166 5.37404C13.8686 5.57235 13.4725 5.53313 13.2197 5.28033L11.75 3.81066L10.2803 5.28033C10.0275 5.53313 9.63144 5.57235 9.33397 5.37404L7.5 4.15139V5.75C7.5 8.09721 9.40279 10 11.75 10Z" fill="#CC5869"/>
</svg>
