<svg width="24" height="24" viewBox="0 0 24 24" fill="none" xmlns="http://www.w3.org/2000/svg">
<path fill-rule="evenodd" clip-rule="evenodd" d="M1 12C1 5.92486 5.92487 1 12 1C18.0751 1 22.9999 5.92486 22.9999 12C22.9999 13.0949 22.3699 13.8065 21.6275 14.2367C20.9416 14.6341 20.0699 14.8521 19.2978 15.0192C19.0516 15.0725 18.8133 15.1211 18.582 15.1683C18.0285 15.2813 17.5158 15.3859 17.0325 15.5265C16.3393 15.7281 15.9419 15.9448 15.7485 16.1631C15.4627 16.4858 15.2793 16.9464 15.1598 17.5749C15.0745 18.0233 15.0347 18.4643 14.9915 18.9424C14.9716 19.1633 14.9509 19.3922 14.9246 19.6336C14.8511 20.3104 14.7287 21.1404 14.3181 21.8023C14.0977 22.1575 13.791 22.4728 13.3731 22.6915C12.9608 22.9073 12.4964 22.9999 12 22.9999C5.92487 22.9999 1 18.0751 1 12ZM12 3C7.02944 3 2.99999 7.02943 2.99999 12C2.99999 16.9706 7.02944 21 12 21C12.2486 21 12.3794 20.9543 12.4456 20.9196C12.5062 20.8879 12.5611 20.8406 12.6186 20.748C12.7636 20.5144 12.8614 20.1072 12.9364 19.4174C12.9544 19.2518 12.9711 19.0668 12.989 18.8702C13.0361 18.3513 13.0906 17.7503 13.195 17.2012C13.3441 16.4171 13.6213 15.5482 14.2515 14.8369C14.8397 14.1729 15.7081 13.8288 16.474 13.6061C17.0411 13.4411 17.6803 13.3107 18.2644 13.1914C18.4771 13.148 18.6825 13.1061 18.8747 13.0645C19.6572 12.895 20.2423 12.7278 20.6248 12.5062C20.9505 12.3175 21 12.1765 21 12C21 7.02943 16.9706 3 12 3ZM11.5 6.99999C11.5 5.61926 12.6193 4.5 14 4.5C15.3807 4.5 16.5 5.61926 16.5 6.99999C16.5 8.38073 15.3807 9.50001 14 9.50001C12.6193 9.50001 11.5 8.38073 11.5 6.99999ZM14 6.50001C13.7238 6.50001 13.5 6.72384 13.5 6.99999C13.5 7.27617 13.7238 7.5 14 7.5C14.2762 7.5 14.5 7.27617 14.5 6.99999C14.5 6.72384 14.2762 6.50001 14 6.50001ZM5.5 9C5.5 7.61926 6.61926 6.50001 8 6.50001C9.38074 6.50001 10.5 7.61926 10.5 9C10.5 10.3807 9.38074 11.5 8 11.5C6.61926 11.5 5.5 10.3807 5.5 9ZM8 8.49999C7.72383 8.49999 7.49999 8.72383 7.49999 9C7.49999 9.27617 7.72383 9.50001 8 9.50001C8.27617 9.50001 8.5 9.27617 8.5 9C8.5 8.72383 8.27617 8.49999 8 8.49999ZM5.99999 15.5C5.99999 14.1193 7.11927 13 8.5 13C9.88074 13 11 14.1193 11 15.5C11 16.8807 9.88074 18 8.5 18C7.11927 18 5.99999 16.8807 5.99999 15.5ZM8.5 15C8.22383 15 8 15.2238 8 15.5C8 15.7762 8.22383 16 8.5 16C8.77616 16 8.99999 15.7762 8.99999 15.5C8.99999 15.2238 8.77616 15 8.5 15Z" fill="#CC5869"/>
</svg>
