<svg width="24" height="24" viewBox="0 0 24 24" fill="none" xmlns="http://www.w3.org/2000/svg">
<path d="M8.66807 6C9.55275 6 10.2301 6.16269 11.2654 6.60178L11.6466 6.76842L12.063 6.95913L12.6754 7.24538L13.028 7.40418C13.084 7.42882 13.1386 7.45256 13.1921 7.47543L13.4986 7.60231C14.2321 7.89422 14.7332 8 15.3347 8C15.9669 8 16.6697 7.83131 17.3788 7.54768C17.6317 7.44653 17.8667 7.33806 18.0768 7.23006L18.2558 7.13469L18.3251 7.09501C18.6408 6.90557 19.0502 7.00794 19.2397 7.32367C19.4292 7.63938 19.3268 8.04889 19.011 8.23832L18.8304 8.34137L18.6058 8.45847C18.4014 8.56074 18.1547 8.67337 17.874 8.78565C17.0206 9.12701 16.1609 9.33333 15.3347 9.33333C14.4501 9.33333 13.7727 9.17064 12.7374 8.73154L12.3562 8.5649L11.9398 8.37419L11.3274 8.08795L10.9748 7.92914C10.9188 7.9045 10.8642 7.88077 10.8107 7.8579L10.5042 7.73102C9.7707 7.43911 9.26959 7.33333 8.66807 7.33333C8.03593 7.33333 7.33309 7.50201 6.62399 7.78565C6.3711 7.8868 6.1361 7.99527 5.9261 8.10327L5.747 8.19864L5.67773 8.23832C5.36202 8.42776 4.95251 8.32538 4.76307 8.00966C4.57364 7.69394 4.67602 7.28443 4.99174 7.09501L5.17246 6.99195L5.39697 6.87486C5.6014 6.77258 5.84812 6.65995 6.12881 6.54768C6.98221 6.20632 7.84188 6 8.66807 6Z" fill="#CC5869"/>
<path d="M8.66807 10.334C9.55275 10.334 10.2301 10.4967 11.2654 10.9358L11.6466 11.1024L12.063 11.2931L12.6754 11.5794L13.028 11.7382C13.084 11.7628 13.1386 11.7865 13.1921 11.8094L13.4986 11.9363C14.2321 12.2282 14.7332 12.334 15.3347 12.334C15.9669 12.334 16.6697 12.1653 17.3788 11.8817C17.6317 11.7805 17.8667 11.672 18.0768 11.564L18.2558 11.4687L18.3251 11.429C18.6408 11.2396 19.0502 11.3419 19.2397 11.6577C19.4292 11.9734 19.3268 12.3829 19.011 12.5723L18.8304 12.6754L18.6058 12.7925C18.4014 12.8947 18.1547 13.0074 17.874 13.1196C17.0206 13.461 16.1609 13.6673 15.3347 13.6673C14.4501 13.6673 13.7727 13.5046 12.7374 13.0655L12.3562 12.8989L11.9398 12.7082L11.3274 12.4219L10.9748 12.2631C10.9188 12.2385 10.8642 12.2148 10.8107 12.1919L10.5042 12.065C9.7707 11.7731 9.26959 11.6673 8.66807 11.6673C8.03593 11.6673 7.33309 11.836 6.62399 12.1196C6.3711 12.2208 6.1361 12.3293 5.9261 12.4373L5.747 12.5326L5.67773 12.5723C5.36202 12.7617 4.95251 12.6594 4.76307 12.3436C4.57364 12.0279 4.67602 11.6184 4.99174 11.429L5.17246 11.3259L5.39697 11.2088C5.6014 11.1066 5.84812 10.9939 6.12881 10.8817C6.98221 10.5403 7.84188 10.334 8.66807 10.334Z" fill="#CC5869"/>
<path d="M8.66807 14.666C9.55275 14.666 10.2301 14.8287 11.2654 15.2678L11.6466 15.4345L12.063 15.6251L12.6754 15.9114L13.028 16.0701C13.084 16.0948 13.1386 16.1186 13.1921 16.1415L13.4986 16.2683C14.2321 16.5602 14.7332 16.666 15.3347 16.666C15.9669 16.666 16.6697 16.4973 17.3788 16.2137C17.6317 16.1125 17.8667 16.0041 18.0768 15.8961L18.2558 15.8007L18.3251 15.761C18.6408 15.5716 19.0502 15.674 19.2397 15.9897C19.4292 16.3055 19.3268 16.7149 19.011 16.9043L18.8304 17.0074L18.6058 17.1244C18.4014 17.2267 18.1547 17.3394 17.874 17.4516C17.0206 17.793 16.1609 17.9994 15.3347 17.9994C14.4501 17.9994 13.7727 17.8367 12.7374 17.3976L12.3562 17.2309L11.9398 17.0402L11.3274 16.7539L10.9748 16.5952C10.9188 16.5705 10.8642 16.5468 10.8107 16.524L10.5042 16.397C9.7707 16.1051 9.26959 15.9994 8.66807 15.9994C8.03593 15.9994 7.33309 16.168 6.62399 16.4516C6.3711 16.5528 6.1361 16.6613 5.9261 16.7693L5.747 16.8647L5.67773 16.9043C5.36202 17.0938 4.95251 16.9914 4.76307 16.6756C4.57364 16.36 4.67602 15.9505 4.99174 15.761L5.17246 15.658L5.39697 15.5409C5.6014 15.4386 5.84812 15.326 6.12881 15.2137C6.98221 14.8723 7.84188 14.666 8.66807 14.666Z" fill="#CC5869"/>
</svg>
