<svg width="24" height="24" viewBox="0 0 24 24" fill="none" xmlns="http://www.w3.org/2000/svg">
<path d="M9.48305 19.5C9.24523 19.5 9.0395 19.4131 8.86588 19.2396C8.69228 19.066 8.60547 18.8611 8.60547 18.625V17.8333H5.41797C4.93673 17.8333 4.52474 17.662 4.18204 17.3193C3.83933 16.9766 3.66797 16.5646 3.66797 16.0833V6.25C3.66797 5.76876 3.83933 5.35677 4.18204 5.01406C4.52474 4.67136 4.93673 4.5 5.41797 4.5H18.5847C19.0658 4.5 19.4778 4.67136 19.8206 5.01406C20.1633 5.35677 20.3347 5.76876 20.3347 6.25V16.0833C20.3347 16.5646 20.1633 16.9766 19.8206 17.3193C19.4778 17.662 19.0658 17.8333 18.5847 17.8333H15.3971V18.625C15.3971 18.8611 15.3103 19.066 15.1367 19.2396C14.9631 19.4131 14.7574 19.5 14.5196 19.5H9.48305ZM5.41797 16.0833H18.5847V6.25H5.41797V16.0833Z" fill="#CC5869"/>
</svg>
