<svg width="24" height="24" viewBox="0 0 24 24" fill="none" xmlns="http://www.w3.org/2000/svg">
<path fill-rule="evenodd" clip-rule="evenodd" d="M11.9987 2.83398C6.93609 2.83398 2.83203 6.93804 2.83203 12.0007C2.83203 17.0633 6.93609 21.1673 11.9987 21.1673C17.0613 21.1673 21.1653 17.0633 21.1653 12.0007C21.1653 6.93804 17.0613 2.83398 11.9987 2.83398ZM14.669 14.7669C15.8048 13.7002 17.3974 12.873 19.455 12.8149C19.0793 16.2945 16.3237 19.0608 12.8491 19.453C12.9598 17.288 13.6037 15.7673 14.669 14.7669ZM11.1806 19.4565C11.2933 16.9633 12.0371 14.9522 13.528 13.552C14.9412 12.2248 16.9307 11.2074 19.4507 11.1477C19.057 7.66922 16.2837 4.91194 12.7978 4.54272C12.6354 7.03814 11.9218 9.05822 10.5559 10.4936C9.16699 11.953 7.11441 12.6835 4.54245 12.8155C4.91951 16.3055 7.69089 19.078 11.1806 19.4565ZM11.1268 4.55079C10.967 6.73724 10.3422 8.30051 9.34852 9.34467C8.36919 10.3737 6.81502 11.0162 4.54683 11.1463C4.93846 7.69268 7.67562 4.95035 11.1268 4.55079Z" fill="#CC5869"/>
</svg>
