<svg width="24" height="24" viewBox="0 0 24 24" fill="none" xmlns="http://www.w3.org/2000/svg">
<path d="M2.88178 19.3438C2.62119 19.3438 2.3954 19.2484 2.20443 19.0575C2.01346 18.8664 1.91797 18.639 1.91797 18.375V16.6982C1.91797 16.1703 2.05547 15.6925 2.33047 15.2647C2.60547 14.8369 2.9645 14.5161 3.40754 14.3022C4.32422 13.8439 5.28672 13.5001 6.29504 13.271C7.30338 13.0418 8.31172 12.9272 9.32004 12.9272C10.3284 12.9272 11.3367 13.0456 12.345 13.2824C13.3534 13.5192 14.3159 13.8591 15.2326 14.3022C15.6756 14.5161 16.0346 14.8369 16.3096 15.2647C16.5846 15.6925 16.7221 16.1703 16.7221 16.6982V18.375C16.7221 18.639 16.6267 18.8664 16.4357 19.0575C16.2447 19.2484 16.0189 19.3438 15.7583 19.3438H2.88178ZM18.1888 19.3438C18.3111 19.2217 18.395 19.0765 18.4409 18.9085C18.4868 18.7404 18.5096 18.5647 18.5096 18.3813V16.5022C18.5096 15.8911 18.3378 15.2685 17.994 14.6345C17.6503 14.0005 17.1346 13.4619 16.4471 13.0189C17.2568 13.1105 17.9978 13.2671 18.67 13.4887C19.3423 13.7102 19.9842 13.9814 20.596 14.3022C21.1606 14.6078 21.55 14.9515 21.7638 15.3335C21.9777 15.7154 22.0846 16.1737 22.0846 16.7085V18.3813C22.0846 18.6411 21.9892 18.8664 21.7983 19.0575C21.6072 19.2484 21.3818 19.3438 21.1221 19.3438H18.1888ZM9.32004 11.9876C8.28116 11.9876 7.41033 11.6362 6.70754 10.9335C6.00477 10.2307 5.65338 9.35985 5.65338 8.32096C5.65338 7.28207 6.00477 6.41123 6.70754 5.70846C7.41033 5.00568 8.28116 4.6543 9.32004 4.6543C10.3589 4.6543 11.2298 5.00568 11.9325 5.70846C12.6353 6.41123 12.9867 7.28207 12.9867 8.32096C12.9867 9.35985 12.6353 10.2307 11.9325 10.9335C11.2298 11.6362 10.3589 11.9876 9.32004 11.9876ZM18.4868 8.32096C18.4868 9.35985 18.1353 10.2307 17.4325 10.9335C16.7298 11.6362 15.8611 11.9876 14.8266 11.9876C14.6542 11.9876 14.419 11.9647 14.1211 11.9189C13.8232 11.873 13.5902 11.8272 13.4221 11.7814C13.8194 11.2925 14.1287 10.7534 14.3503 10.1641C14.5718 9.57488 14.6825 8.96296 14.6825 8.32837C14.6825 7.69378 14.5718 7.08186 14.3503 6.4926C14.1287 5.90333 13.8194 5.36696 13.4221 4.88346C13.6513 4.80707 13.8881 4.74978 14.1326 4.71158C14.377 4.67339 14.6088 4.6543 14.8281 4.6543C15.8616 4.6543 16.7298 5.00568 17.4325 5.70846C18.1353 6.41123 18.4868 7.28207 18.4868 8.32096ZM3.84297 17.4188H14.7971V16.7026C14.7971 16.5384 14.7589 16.3991 14.6825 16.2845C14.6062 16.1699 14.5069 16.0897 14.3846 16.0439C13.5902 15.6772 12.7537 15.3869 11.8753 15.173C10.9968 14.9591 10.145 14.8522 9.32004 14.8522C8.49504 14.8522 7.64331 14.9553 6.76484 15.1616C5.88638 15.3678 5.04991 15.6619 4.25547 16.0439C4.13325 16.0897 4.03395 16.1699 3.95754 16.2845C3.88116 16.3991 3.84297 16.5384 3.84297 16.7026V17.4188ZM9.32004 10.0626C9.82422 10.0626 10.2405 9.89839 10.569 9.56991C10.8975 9.24144 11.0617 8.82512 11.0617 8.32096C11.0617 7.8168 10.8975 7.40048 10.569 7.072C10.2405 6.74353 9.82422 6.5793 9.32004 6.5793C8.81588 6.5793 8.39956 6.74353 8.07109 7.072C7.74263 7.40048 7.57838 7.8168 7.57838 8.32096C7.57838 8.82512 7.74263 9.24144 8.07109 9.56991C8.39956 9.89839 8.81588 10.0626 9.32004 10.0626Z" fill="#CC5869"/>
</svg>
