<svg width="24" height="24" viewBox="0 0 24 24" fill="none" xmlns="http://www.w3.org/2000/svg">
<path d="M2.48437 20.6534C1.93209 20.6534 1.48438 20.2056 1.48438 19.6534V18.4303C1.48438 17.938 1.61322 17.4854 1.8709 17.0726C2.1286 16.6598 2.48822 16.338 2.94975 16.1073C3.78052 15.6868 4.71 15.3393 5.7382 15.065C6.7664 14.7906 7.84844 14.6534 8.98433 14.6534C10.1202 14.6534 11.2023 14.7906 12.2305 15.065C13.2587 15.3393 14.1882 15.6868 15.0189 16.1073C15.4805 16.338 15.8401 16.6598 16.0978 17.0726C16.3555 17.4854 16.4843 17.938 16.4843 18.4303V19.6534C16.4843 20.2056 16.0366 20.6534 15.4843 20.6534H2.48437ZM2.98433 18.4303C2.98433 18.8297 3.30805 19.1534 3.70737 19.1534H14.2613C14.6606 19.1534 14.9843 18.8297 14.9843 18.4303V18.4303C14.9843 18.2021 14.9225 18.0066 14.7987 17.8438C14.675 17.681 14.5189 17.5483 14.3305 17.4457C13.7177 17.1329 12.9404 16.8393 11.9988 16.5649C11.0571 16.2906 10.0523 16.1534 8.98433 16.1534C7.91639 16.1534 6.91159 16.2906 5.96992 16.5649C5.02826 16.8393 4.25102 17.1329 3.6382 17.4457C3.44973 17.5483 3.29364 17.681 3.16993 17.8438C3.04619 18.0066 2.98433 18.2021 2.98433 18.4303V18.4303ZM8.98433 13.038C8.00614 13.038 7.17827 12.6992 6.5007 12.0217C5.87508 11.396 5.5383 10.6259 5.49035 9.71111C5.48367 9.58384 5.38105 9.48033 5.2536 9.48033V9.48033C5.12283 9.48033 5.01643 9.4393 4.93438 9.35725C4.85233 9.2752 4.8113 9.16879 4.8113 9.03803C4.8113 8.90726 4.85233 8.80085 4.93438 8.7188C5.01643 8.63675 5.12283 8.59573 5.2536 8.59573V8.59573C5.38181 8.59573 5.48572 8.49308 5.4952 8.36523C5.53508 7.82793 5.67634 7.33715 5.91898 6.89288C6.05049 6.65207 6.20832 6.42752 6.39246 6.21925C6.65623 5.92091 7.09973 6.13986 7.09973 6.53808V6.53808C7.09973 6.66884 7.14075 6.77525 7.2228 6.8573C7.30485 6.93935 7.41126 6.98038 7.54203 6.98038C7.67279 6.98038 7.7792 6.93935 7.86125 6.8573C7.9433 6.77525 7.98433 6.66884 7.98433 6.53808V5.69357C7.98433 5.40241 8.16822 5.13813 8.45452 5.08518V5.08518C8.62439 5.05378 8.80099 5.03808 8.98433 5.03808C9.16766 5.03808 9.34427 5.05378 9.51415 5.08518V5.08518C9.80044 5.13813 9.98433 5.4024 9.98433 5.69355V6.53808C9.98433 6.66884 10.0254 6.77525 10.1074 6.8573C10.1895 6.93935 10.2959 6.98038 10.4267 6.98038C10.5574 6.98038 10.6638 6.93935 10.7459 6.8573C10.8279 6.77525 10.8689 6.66884 10.8689 6.53808V6.53808C10.8689 6.13831 11.3136 5.91707 11.5792 6.21577C11.7654 6.42503 11.9238 6.65073 12.0545 6.89288C12.2943 7.33715 12.434 7.82793 12.4735 8.36522C12.483 8.49309 12.5869 8.59573 12.7151 8.59573V8.59573C12.8458 8.59573 12.9523 8.63675 13.0343 8.7188C13.1164 8.80085 13.1574 8.90726 13.1574 9.03803C13.1574 9.16879 13.1164 9.2752 13.0343 9.35725C12.9523 9.4393 12.8458 9.48033 12.7151 9.48033V9.48033C12.5876 9.48033 12.485 9.58384 12.4783 9.71111C12.4304 10.6259 12.0936 11.396 11.468 12.0217C10.7904 12.6992 9.96253 13.038 8.98433 13.038ZM8.98433 11.538C9.54716 11.538 10.0212 11.3454 10.4065 10.9602C10.5478 10.8188 10.6633 10.6654 10.7528 10.5001C11.0157 10.0145 10.5366 9.53803 9.98433 9.53803H7.98433C7.43204 9.53803 6.95293 10.0145 7.21589 10.5001C7.30539 10.6654 7.42084 10.8188 7.56223 10.9602C7.94748 11.3454 8.42151 11.538 8.98433 11.538ZM16.9285 14.9803C16.6841 14.9803 16.4763 14.8018 16.4395 14.5602V14.5602C16.4105 14.3706 16.2723 14.2189 16.0991 14.1363C16.0833 14.1288 16.0675 14.121 16.0517 14.113C16.0324 14.1033 16.0135 14.0931 15.9949 14.0824C15.8293 13.9874 15.631 13.9373 15.4534 14.0075V14.0075C15.2309 14.0955 14.9775 14.0058 14.86 13.7973L14.8322 13.748C14.7113 13.5334 14.7628 13.263 14.9541 13.1079L15.0521 13.0284C15.1381 12.9587 15.1728 12.8468 15.1728 12.7361V12.7361V12.3832V12.3832C15.1728 12.2692 15.1369 12.1548 15.0484 12.0831L14.9569 12.0089C14.764 11.8525 14.7121 11.5797 14.834 11.3633L14.86 11.3171C14.9776 11.1087 15.2309 11.0189 15.4534 11.107V11.107C15.631 11.1772 15.8312 11.1296 15.997 11.0349C16.0123 11.0262 16.028 11.0176 16.044 11.0092C16.0628 10.9992 16.0815 10.9897 16.1001 10.9805C16.2723 10.8958 16.4105 10.7438 16.4395 10.5542V10.5542C16.4763 10.3126 16.6841 10.1342 16.9285 10.1342H16.9633C17.2076 10.1342 17.4154 10.3126 17.4523 10.5542V10.5542C17.4812 10.7438 17.6195 10.8958 17.7916 10.9805C17.8102 10.9897 17.829 10.9992 17.8478 11.0092C17.8638 11.0176 17.8794 11.0262 17.8947 11.0349C18.0605 11.1296 18.2608 11.1772 18.4383 11.107V11.107C18.6609 11.0189 18.9142 11.1087 19.0317 11.3171L19.0577 11.3633C19.1797 11.5797 19.1278 11.8525 18.9349 12.0089L18.8433 12.0831C18.7548 12.1548 18.719 12.2692 18.719 12.3832V12.3832V12.7361V12.7361C18.719 12.8468 18.7537 12.9587 18.8397 13.0284L18.9377 13.1079C19.129 13.263 19.1805 13.5334 19.0595 13.7479L19.0317 13.7973C18.9142 14.0058 18.6609 14.0955 18.4383 14.0075V14.0075C18.2608 13.9373 18.0625 13.9874 17.8969 14.0824C17.8783 14.0931 17.8594 14.1033 17.8401 14.113C17.8243 14.121 17.8084 14.1288 17.7926 14.1363C17.6194 14.2189 17.4812 14.3706 17.4523 14.5603V14.5603C17.4154 14.8018 17.2076 14.9803 16.9633 14.9803H16.9285ZM16.9459 13.3842C17.1715 13.3842 17.3657 13.3027 17.5286 13.1399C17.6914 12.9771 17.7728 12.7829 17.7728 12.5572C17.7728 12.3316 17.6914 12.1373 17.5286 11.9745C17.3657 11.8117 17.1715 11.7303 16.9459 11.7303C16.7202 11.7303 16.526 11.8117 16.3632 11.9745C16.2004 12.1373 16.1189 12.3316 16.1189 12.5572C16.1189 12.7829 16.2004 12.9771 16.3632 13.1399C16.526 13.3027 16.7202 13.3842 16.9459 13.3842ZM19.3851 9.76875C19.0836 9.76875 18.8271 9.54906 18.7808 9.25118V9.25118C18.7433 9.00979 18.5619 8.82032 18.3422 8.71346C18.2998 8.69281 18.2574 8.67054 18.2151 8.64663C18.1831 8.62854 18.1521 8.60975 18.1221 8.59027C17.9037 8.44845 17.6336 8.3671 17.3893 8.45728V8.45728C17.1061 8.56179 16.7889 8.44792 16.6368 8.18723L16.6013 8.12631C16.4476 7.86282 16.5084 7.52668 16.7447 7.33378L16.89 7.21521C17.0085 7.11843 17.0415 6.9578 17.0286 6.8053V6.8053C17.0222 6.72967 17.019 6.64698 17.019 6.55723C17.019 6.46748 17.0222 6.38479 17.0286 6.30915V6.30915C17.0415 6.15665 17.0085 5.99603 16.89 5.89925L16.7447 5.78068C16.5084 5.58778 16.4476 5.25163 16.6013 4.98814L16.6368 4.92723C16.7889 4.66654 17.1061 4.55267 17.3893 4.65717V4.65717C17.6336 4.74735 17.9037 4.666 18.1221 4.52419C18.1521 4.50471 18.1831 4.48592 18.2151 4.46783C18.2574 4.44392 18.2998 4.42164 18.3422 4.40099C18.5619 4.29414 18.7433 4.10467 18.7808 3.86328V3.86328C18.8271 3.5654 19.0836 3.3457 19.3851 3.3457H19.4682C19.7697 3.3457 20.0262 3.5654 20.0725 3.86328V3.86328C20.11 4.10467 20.2914 4.29414 20.5111 4.401C20.5535 4.42165 20.5959 4.44392 20.6382 4.46783C20.6702 4.48592 20.7012 4.5047 20.7312 4.52419C20.9496 4.666 21.2197 4.74735 21.464 4.65717V4.65717C21.7471 4.55267 22.0644 4.66654 22.2165 4.92723L22.252 4.98814C22.4057 5.25163 22.3449 5.58778 22.1086 5.78068L21.9633 5.89925C21.8448 5.99603 21.8118 6.15665 21.8247 6.30915V6.30915C21.8311 6.38479 21.8343 6.46748 21.8343 6.55723C21.8343 6.64698 21.8311 6.72967 21.8247 6.8053V6.8053C21.8118 6.9578 21.8448 7.11843 21.9633 7.21521L22.1086 7.33378C22.3449 7.52667 22.4057 7.86282 22.252 8.12631L22.2165 8.18723C22.0644 8.44792 21.7471 8.56179 21.464 8.45728V8.45728C21.2197 8.3671 20.9496 8.44845 20.7312 8.59027C20.7012 8.60975 20.6702 8.62854 20.6382 8.64663C20.5959 8.67053 20.5535 8.69281 20.5111 8.71346C20.2914 8.82032 20.11 9.00979 20.0725 9.25118V9.25118C20.0262 9.54906 19.7697 9.76875 19.4682 9.76875H19.3851ZM19.4266 7.86493C19.7959 7.86493 20.1061 7.73929 20.3574 7.488C20.6087 7.23672 20.7343 6.92646 20.7343 6.55723C20.7343 6.18799 20.6087 5.87774 20.3574 5.62645C20.1061 5.37517 19.7959 5.24953 19.4266 5.24953C19.0574 5.24953 18.7472 5.37517 18.4959 5.62645C18.2446 5.87774 18.1189 6.18799 18.1189 6.55723C18.1189 6.92646 18.2446 7.23672 18.4959 7.488C18.7472 7.73929 19.0574 7.86493 19.4266 7.86493Z" fill="#CC5869"/>
</svg>
