<svg width="14" height="13" viewBox="0 0 14 13" fill="none" xmlns="http://www.w3.org/2000/svg">
<path fill-rule="evenodd" clip-rule="evenodd" d="M10.7918 1.75016C10.3086 1.75016 9.91683 2.14191 9.91683 2.62516C9.91683 3.10841 10.3086 3.50016 10.7918 3.50016C11.2751 3.50016 11.6668 3.10841 11.6668 2.62516C11.6668 2.14191 11.2751 1.75016 10.7918 1.75016ZM8.75016 2.62516C8.75016 1.49758 9.66425 0.583496 10.7918 0.583496C11.9194 0.583496 12.8335 1.49758 12.8335 2.62516C12.8335 3.75274 11.9194 4.66683 10.7918 4.66683C9.66425 4.66683 8.75016 3.75274 8.75016 2.62516ZM5.2553 2.33352C5.48892 2.33558 5.69877 2.47682 5.78863 2.69247L8.10609 8.25439L8.7801 6.23236C8.85214 6.01624 9.0434 5.86184 9.26985 5.83698C9.4963 5.81212 9.7165 5.92136 9.8337 6.11671L13.3337 11.95C13.4418 12.1302 13.4447 12.3547 13.3411 12.5376C13.2376 12.7205 13.0437 12.8335 12.8335 12.8335H1.16683C0.96997 12.8335 0.786389 12.7342 0.678637 12.5694C0.570885 12.4047 0.553501 12.1967 0.632406 12.0164L4.71574 2.68302C4.80938 2.46898 5.02169 2.33146 5.2553 2.33352ZM2.05876 11.6668H11.8032L9.48583 7.80451L8.72023 10.1013C8.6433 10.3321 8.43123 10.4909 8.18813 10.4998C7.94503 10.5087 7.72193 10.3657 7.62837 10.1412L5.23708 4.40209L2.05876 11.6668Z" fill="#CC5869"/>
</svg>
