<svg width="80" height="80" viewBox="0 0 80 80" fill="none" xmlns="http://www.w3.org/2000/svg">
<rect width="80" height="80" rx="8" fill="#EBEBEB"/>
<path d="M39.25 44H40.75V40.75H44V39.25H40.75V36H39.25V39.25H36V40.75H39.25V44ZM40.0058 48C38.9047 48 37.8681 47.7917 36.8958 47.375C35.9236 46.9583 35.0729 46.3854 34.3438 45.6562C33.6146 44.9271 33.0417 44.0767 32.625 43.105C32.2083 42.1334 32 41.0952 32 39.9905C32 38.8857 32.2083 37.8507 32.625 36.8854C33.0417 35.9201 33.6146 35.0729 34.3438 34.3438C35.0729 33.6146 35.9233 33.0417 36.895 32.625C37.8666 32.2083 38.9048 32 40.0095 32C41.1143 32 42.1493 32.2083 43.1146 32.625C44.0799 33.0417 44.9271 33.6146 45.6562 34.3438C46.3854 35.0729 46.9583 35.9217 47.375 36.8901C47.7917 37.8585 48 38.8932 48 39.9943C48 41.0953 47.7917 42.1319 47.375 43.1042C46.9583 44.0764 46.3854 44.9271 45.6562 45.6562C44.9271 46.3854 44.0783 46.9583 43.1099 47.375C42.1415 47.7917 41.1068 48 40.0058 48ZM40 46.5C41.8056 46.5 43.3403 45.8681 44.6042 44.6042C45.8681 43.3403 46.5 41.8056 46.5 40C46.5 38.1944 45.8681 36.6597 44.6042 35.3958C43.3403 34.1319 41.8056 33.5 40 33.5C38.1944 33.5 36.6597 34.1319 35.3958 35.3958C34.1319 36.6597 33.5 38.1944 33.5 40C33.5 41.8056 34.1319 43.3403 35.3958 44.6042C36.6597 45.8681 38.1944 46.5 40 46.5Z" fill="#777777"/>
</svg>
