<svg width="32" height="32" viewBox="0 0 32 32" fill="none" xmlns="http://www.w3.org/2000/svg">
<rect width="32" height="32" rx="16" fill="white"/>
<path d="M10.5741 17.9167C10.0387 17.9167 9.5835 17.7307 9.2085 17.3588C8.8335 16.9869 8.646 16.5349 8.646 16.0027C8.646 15.4593 8.83443 15.0035 9.21129 14.6355C9.58815 14.2674 10.0412 14.0834 10.5704 14.0834C11.1111 14.0834 11.5713 14.269 11.9512 14.6402C12.3311 15.0114 12.521 15.4638 12.521 15.9974C12.521 16.5408 12.3304 16.9966 11.9491 17.3646C11.5678 17.7327 11.1095 17.9167 10.5741 17.9167ZM16.0028 17.9167C15.4594 17.9167 15.0036 17.7307 14.6356 17.3588C14.2675 16.9869 14.0835 16.5349 14.0835 16.0027C14.0835 15.4593 14.2695 15.0035 14.6414 14.6355C15.0133 14.2674 15.4653 14.0834 15.9975 14.0834C16.5409 14.0834 16.9967 14.269 17.3647 14.6402C17.7328 15.0114 17.9168 15.4638 17.9168 15.9974C17.9168 16.5408 17.7312 16.9966 17.36 17.3646C16.9888 17.7327 16.5364 17.9167 16.0028 17.9167ZM21.4358 17.9167C20.8935 17.9167 20.4319 17.7307 20.0508 17.3588C19.6698 16.9869 19.4793 16.5349 19.4793 16.0027C19.4793 15.4593 19.6714 15.0035 20.0556 14.6355C20.4397 14.2674 20.9015 14.0834 21.441 14.0834C21.9804 14.0834 22.4342 14.269 22.8022 14.6402C23.1703 15.0114 23.3543 15.4638 23.3543 15.9974C23.3543 16.5408 23.1687 16.9966 22.7975 17.3646C22.4263 17.7327 21.9724 17.9167 21.4358 17.9167Z" fill="black"/>
</svg>
