<svg width="16" height="16" viewBox="0 0 16 16" fill="none" xmlns="http://www.w3.org/2000/svg">
<path d="M13.7168 7.14802H12.5025V3.14802C12.5025 1.88552 11.4793 0.862305 10.2168 0.862305H5.78823C4.52573 0.862305 3.50251 1.88552 3.50251 3.14802V7.14802H2.28823C1.97215 7.14802 1.7168 7.40338 1.7168 7.71945V14.5766C1.7168 14.8927 1.97215 15.148 2.28823 15.148H13.7168C14.0329 15.148 14.2882 14.8927 14.2882 14.5766V7.71945C14.2882 7.40338 14.0329 7.14802 13.7168 7.14802ZM4.78823 3.14802C4.78823 2.59623 5.23644 2.14802 5.78823 2.14802H10.2168C10.7686 2.14802 11.2168 2.59623 11.2168 3.14802V7.14802H4.78823V3.14802ZM13.0025 13.8623H3.00251V8.43373H13.0025V13.8623ZM7.50251 11.3802V12.3266C7.50251 12.4052 7.5668 12.4694 7.64537 12.4694H8.35965C8.43823 12.4694 8.50251 12.4052 8.50251 12.3266V11.3802C8.64992 11.2743 8.75994 11.1245 8.81675 10.9521C8.87355 10.7798 8.87421 10.5939 8.81862 10.4211C8.76303 10.2484 8.65407 10.0977 8.50741 9.99087C8.36076 9.884 8.18397 9.82642 8.00251 9.82642C7.82105 9.82642 7.64427 9.884 7.49761 9.99087C7.35096 10.0977 7.24199 10.2484 7.18641 10.4211C7.13082 10.5939 7.13147 10.7798 7.18828 10.9521C7.24508 11.1245 7.35511 11.2743 7.50251 11.3802Z" fill="#CC5869"/>
</svg>
