<svg width="14" height="14" viewBox="0 0 14 14" fill="none" xmlns="http://www.w3.org/2000/svg">
<g clip-path="url(#clip0_1853_50336)">
<path d="M13.7215 6.59785C12.2402 3.47754 10.0012 1.90723 6.9996 1.90723C3.99648 1.90723 1.75898 3.47754 0.277727 6.59941C0.218314 6.72522 0.1875 6.86263 0.1875 7.00176C0.1875 7.14089 0.218314 7.27829 0.277727 7.4041C1.75898 10.5244 3.99804 12.0947 6.9996 12.0947C10.0027 12.0947 12.2402 10.5244 13.7215 7.40254C13.8418 7.14941 13.8418 6.85566 13.7215 6.59785ZM6.9996 10.9697C4.47929 10.9697 2.63398 9.6916 1.33241 7.00098C2.63398 4.31035 4.47929 3.03223 6.9996 3.03223C9.51992 3.03223 11.3652 4.31035 12.6668 7.00098C11.3668 9.6916 9.52148 10.9697 6.9996 10.9697ZM6.9371 4.25098C5.41835 4.25098 4.1871 5.48223 4.1871 7.00098C4.1871 8.51973 5.41835 9.75098 6.9371 9.75098C8.45585 9.75098 9.6871 8.51973 9.6871 7.00098C9.6871 5.48223 8.45585 4.25098 6.9371 4.25098ZM6.9371 8.75098C5.96991 8.75098 5.1871 7.96816 5.1871 7.00098C5.1871 6.03379 5.96991 5.25098 6.9371 5.25098C7.90429 5.25098 8.6871 6.03379 8.6871 7.00098C8.6871 7.96816 7.90429 8.75098 6.9371 8.75098Z" fill="black" fill-opacity="0.85"/>
</g>
<defs>
<clipPath id="clip0_1853_50336">
<rect width="14" height="14" fill="white"/>
</clipPath>
</defs>
</svg>
