<svg width="12" height="12" viewBox="0 0 12 12" fill="none" xmlns="http://www.w3.org/2000/svg">
<path d="M4.25 2.96881H5.40469V8.25475C5.40469 8.3235 5.46094 8.37975 5.52969 8.37975H6.46719C6.53594 8.37975 6.59219 8.3235 6.59219 8.25475V2.96881H7.75C7.85469 2.96881 7.9125 2.8485 7.84844 2.76725L6.09844 0.551623C6.08674 0.536683 6.0718 0.5246 6.05475 0.51629C6.03769 0.507981 6.01897 0.503662 6 0.503662C5.98103 0.503662 5.96231 0.507981 5.94525 0.51629C5.92819 0.5246 5.91326 0.536683 5.90156 0.551623L4.15156 2.76569C4.0875 2.8485 4.14531 2.96881 4.25 2.96881ZM11.7188 7.786H10.7812C10.7125 7.786 10.6562 7.84225 10.6562 7.911V10.3172H1.34375V7.911C1.34375 7.84225 1.2875 7.786 1.21875 7.786H0.28125C0.2125 7.786 0.15625 7.84225 0.15625 7.911V11.0047C0.15625 11.2813 0.379687 11.5047 0.65625 11.5047H11.3438C11.6203 11.5047 11.8438 11.2813 11.8438 11.0047V7.911C11.8438 7.84225 11.7875 7.786 11.7188 7.786Z" fill="black" fill-opacity="0.25"/>
</svg>
