<svg width="16" height="16" viewBox="0 0 16 16" fill="none" xmlns="http://www.w3.org/2000/svg">
<g clip-path="url(#clip0_775_6316)">
<path d="M11.9294 1.6426V2.89795C11.9294 2.98367 11.9669 3.06403 12.033 3.1176C12.1848 3.2426 12.3312 3.37653 12.4705 3.5176C13.0481 4.09457 13.5083 4.77801 13.8259 5.5301C14.155 6.30928 14.3238 7.14676 14.3223 7.9926C14.3223 8.84796 14.1544 9.67653 13.8259 10.4551C13.5083 11.2072 13.0481 11.8906 12.4705 12.4676C11.8949 13.0456 11.2127 13.5065 10.4616 13.8247C9.68301 14.1551 8.85622 14.3212 8.00086 14.3212C7.14551 14.3212 6.31872 14.1533 5.54015 13.8247C4.78836 13.5069 4.11158 13.0497 3.53122 12.4676C2.95086 11.8855 2.49372 11.2087 2.17586 10.4551C1.84729 9.67653 1.67944 8.84796 1.67944 7.9926C1.67944 7.13724 1.84551 6.30867 2.17586 5.5301C2.49372 4.77653 2.95086 4.09974 3.53122 3.5176C3.67229 3.37653 3.81872 3.24438 3.96872 3.1176C4.03479 3.06403 4.07229 2.98188 4.07229 2.89795V1.6426C4.07229 1.5301 3.94729 1.46045 3.85265 1.52295C1.72408 2.8926 0.31515 5.28903 0.322293 8.01224C0.333007 12.2908 3.80622 15.7212 8.07944 15.6783C12.2848 15.6355 15.6794 12.2105 15.6794 7.9926C15.6794 5.27653 14.2723 2.89081 12.1491 1.52295C12.0544 1.46224 11.9294 1.5301 11.9294 1.6426ZM7.88836 0.0550976L5.88836 2.58903C5.81336 2.68367 5.88122 2.82117 6.00086 2.82117H7.35801L7.35801 8.42831C7.35801 8.50688 7.42229 8.57117 7.50086 8.57117H8.50086C8.57944 8.57117 8.64372 8.50688 8.64372 8.42831V2.82117H10.0009C10.1205 2.82117 10.1884 2.68188 10.1134 2.58903L8.11336 0.0550976C8.1 0.038023 8.08293 0.0242138 8.06344 0.0147171C8.04394 0.00522041 8.02255 0.000285149 8.00086 0.000285149C7.97918 0.000285149 7.95778 0.00522041 7.93829 0.0147171C7.9188 0.0242138 7.90173 0.038023 7.88836 0.0550976Z" fill="currentColor"/>
</g>
<defs>
<clipPath id="clip0_775_6316">
<rect width="16" height="16" fill="white" transform="matrix(0 -1 1 0 0 16)"/>
</clipPath>
</defs>
</svg>
